<svg xmlns="http://www.w3.org/2000/svg" xmlns:xlink="http://www.w3.org/1999/xlink" viewBox="0 0 1760.9 710.46"><defs><style>.cls-1{fill:#fff;}.cls-2{fill:url(#Degradado_sin_nombre_4);}.cls-3{fill:url(#Degradado_sin_nombre_4-2);}</style><linearGradient id="Degradado_sin_nombre_4" x1="105.3" y1="607.42" x2="611.86" y2="100.85" gradientUnits="userSpaceOnUse"><stop offset="0" stop-color="#9e6e19"/><stop offset="0.15" stop-color="#b3852e"/><stop offset="0.35" stop-color="#ca9e45"/><stop offset="0.48" stop-color="#d3a84e"/><stop offset="0.56" stop-color="#d5ab50"/><stop offset="0.62" stop-color="#dcb458"/><stop offset="0.67" stop-color="#e9c364"/><stop offset="0.71" stop-color="#fad876"/><stop offset="0.71" stop-color="#fad876"/><stop offset="0.76" stop-color="#f0cc6b"/><stop offset="0.85" stop-color="#d4ac4f"/><stop offset="0.97" stop-color="#a77922"/><stop offset="0.99" stop-color="#9e6e19"/></linearGradient><linearGradient id="Degradado_sin_nombre_4-2" x1="308.84" y1="404.75" x2="407.76" y2="305.83" xlink:href="#Degradado_sin_nombre_4"/></defs><g id="Layer_2" data-name="Layer 2"><g id="Layer_1-2" data-name="Layer 1"><path class="cls-1" d="M1246.43,566.79V362.88h44.86V566.79ZM1522.31,505A94.84,94.84,0,0,1,1500,537.37a105.51,105.51,0,0,1-34.37,21.56,118.62,118.62,0,0,1-43.84,7.86h-79.52V362.88h79.52a120.67,120.67,0,0,1,43.84,7.72A103.68,103.68,0,0,1,1500,392a95.25,95.25,0,0,1,22.29,32.19,101.41,101.41,0,0,1,7.86,40.06v.58A102.42,102.42,0,0,1,1522.31,505Zm-39-40.2a66.44,66.44,0,0,0-4.51-24.76,58.11,58.11,0,0,0-12.53-19.52,55.52,55.52,0,0,0-19.37-12.67,67.23,67.23,0,0,0-25-4.52h-34.66V526.3h34.66a69.28,69.28,0,0,0,25-4.37,53.69,53.69,0,0,0,19.37-12.52,58.87,58.87,0,0,0,12.53-19.23,65,65,0,0,0,4.51-24.76ZM1750.1,505a95,95,0,0,1-22.28,32.33,105.55,105.55,0,0,1-34.38,21.56,118.58,118.58,0,0,1-43.84,7.86h-79.52V362.88h79.52a120.64,120.64,0,0,1,43.84,7.72A103.73,103.73,0,0,1,1727.82,392a95.37,95.37,0,0,1,22.28,32.19,101.24,101.24,0,0,1,7.87,40.06v.58A102.25,102.25,0,0,1,1750.1,505Zm-39-40.2a66.44,66.44,0,0,0-4.52-24.76A58.08,58.08,0,0,0,1694,420.56a55.7,55.7,0,0,0-19.37-12.67,67.32,67.32,0,0,0-25.06-4.52h-34.66V526.3h34.66a69.37,69.37,0,0,0,25.06-4.37A53.86,53.86,0,0,0,1694,509.41a58.85,58.85,0,0,0,12.52-19.23,65,65,0,0,0,4.52-24.76Z"/><path class="cls-1" d="M883.65,333.31,840,268.06H804.71v65.25H759.85V129.4h93.22q36.4,0,56.65,17.77T930,196.69v.58q0,24.76-12.09,40.35a70,70,0,0,1-31.6,22.86l49.81,72.83ZM884.53,199q0-14.57-9.32-21.85t-25.93-7.28H804.71v58.55h45.44q16.61,0,25.49-7.86t8.89-21Zm88,134.29V129.4h44.86V333.31Zm258.66-17.77a97.39,97.39,0,0,1-18.5,11.51,96.07,96.07,0,0,1-22,7.28,132.67,132.67,0,0,1-26.8,2.47,105.69,105.69,0,0,1-41.66-8.15A102.44,102.44,0,0,1,1089,306.36,101.28,101.28,0,0,1,1067.14,273a107.31,107.31,0,0,1-7.87-41.07v-.59A106,106,0,0,1,1089,156.93a101.25,101.25,0,0,1,33.5-22.72q19.51-8.31,43.11-8.31a134.41,134.41,0,0,1,26.08,2.34,109.18,109.18,0,0,1,21.41,6.4,93.62,93.62,0,0,1,17.76,9.91A119.57,119.57,0,0,1,1246,157.36l-28.54,32.92a108.07,108.07,0,0,0-24.33-16.89,61.93,61.93,0,0,0-27.82-6.12,56.42,56.42,0,0,0-42.53,18.64,63.87,63.87,0,0,0-12.23,20.25,68.78,68.78,0,0,0-4.37,24.61v.58a70,70,0,0,0,4.37,24.76,64.81,64.81,0,0,0,12.09,20.4,56.09,56.09,0,0,0,42.67,18.93q17.48,0,29.57-6.41a114.26,114.26,0,0,0,24-17.48l28.55,28.84A147.3,147.3,0,0,1,1231.14,315.54Zm179.75,17.77V251.45h-82.73v81.86H1283.3V129.4h44.86v80.69h82.73V129.4h44.86V333.31Zm95.83,0V129.4h44.86V333.31Zm95.81,0V129.4h153.52v39.91H1646.81v41.36h96.13v39.91h-96.13V293.4H1757.5v39.91Z"/><path class="cls-1" d="M738.77,598.42l11.28,37h-5.47l-2.9-10H728.36l-2.86,10h-5.36l11.33-37Zm-9.14,22.5H740.3l-5-18.06h-.41Z"/><path class="cls-1" d="M766.58,598.42c9.69,0,14.39,3.11,14.39,10.36,0,4.84-2.5,8.06-7.3,9.44l8.47,17.19h-5.82l-7.7-16H760.5v16h-5.25v-37ZM760.5,614.9h6.13c6,0,8.93-1.79,8.93-6,0-4.49-2.76-6-8.83-6H760.5Z"/><path class="cls-1" d="M808.47,609.54c-1.07-4.74-3.72-7.14-7.86-7.14-5.46,0-8.77,5.05-8.77,14.64s3.26,14.29,9.13,14.29c4.18,0,7.25-2.65,8.22-7.45l4.9,1.23C812.2,632.3,807.76,636,800.82,636c-9.24,0-14.39-6.59-14.39-19,0-12.19,5.51-19.08,14.39-19.08,6.78,0,11.07,3.57,12.6,10.41Z"/><path class="cls-1" d="M825.31,598.42v15.31H842V598.42h5.3v37H842V618.52H825.31v16.89H820v-37Z"/><path class="cls-1" d="M862.2,598.42v37h-5.3v-37Z"/><path class="cls-1" d="M894.5,598.42v4.69H884.2v32.3h-5.46v-32.3H868.43v-4.69Z"/><path class="cls-1" d="M923.08,598.42V603H905.63v10.77h12.5v4.54h-12.5v12.35H923.9v4.74H900.32v-37Z"/><path class="cls-1" d="M949.61,609.54c-1.07-4.74-3.72-7.14-7.86-7.14-5.46,0-8.77,5.05-8.77,14.64s3.26,14.29,9.13,14.29c4.19,0,7.25-2.65,8.22-7.45l4.9,1.23C953.34,632.3,948.9,636,942,636c-9.24,0-14.39-6.59-14.39-19,0-12.19,5.51-19.08,14.39-19.08,6.79,0,11.07,3.57,12.6,10.41Z"/><path class="cls-1" d="M983.7,598.42v4.69H973.39v32.3h-5.46v-32.3H957.62v-4.69Z"/><path class="cls-1" d="M994.67,598.42v23.42c0,6.53,2.19,9.54,8.37,9.54s8.32-3.06,8.32-9.54V598.42h5.25V623c0,8.58-4.79,13.07-13.88,13.07-8.77,0-13.37-4.65-13.37-13.63v-24Z"/><path class="cls-1" d="M1037.07,598.42c9.7,0,14.39,3.11,14.39,10.36,0,4.84-2.5,8.06-7.29,9.44l8.47,17.19h-5.82l-7.71-16H1031v16h-5.25v-37ZM1031,614.9h6.12c6,0,8.93-1.79,8.93-6,0-4.49-2.75-6-8.82-6H1031Z"/><path class="cls-1" d="M1082.23,598.42V603h-17.45v10.77h12.5v4.54h-12.5v12.35h18.27v4.74h-23.58v-37Z"/><path class="cls-1" d="M1114.64,647.46h-3.73v-51h3.73Z"/><path class="cls-1" d="M1151.27,598.42v37H1146v-37Z"/><path class="cls-1" d="M1167.5,598.42l11.79,20.31c1.43,2.5,2.86,5.15,4.23,8-.15-2.15-.2-4.65-.2-7.4V598.42h5v37h-4.64l-13.32-22.14c-1.33-2.2-2.86-5-4.6-8.47.16,2.39.21,5,.21,7.85v22.76h-5v-37Z"/><path class="cls-1" d="M1220,598.42v4.69H1209.7v32.3h-5.46v-32.3h-10.31v-4.69Z"/><path class="cls-1" d="M1248.58,598.42V603h-17.45v10.77h12.5v4.54h-12.5v12.35h18.27v4.74h-23.58v-37Z"/><path class="cls-1" d="M1266.85,598.42c9.7,0,14.39,3.11,14.39,10.36,0,4.84-2.5,8.06-7.3,9.44l8.47,17.19h-5.81l-7.71-16h-8.11v16h-5.26v-37Zm-6.07,16.48h6.12c6,0,8.93-1.79,8.93-6,0-4.49-2.75-6-8.83-6h-6.22Z"/><path class="cls-1" d="M1294.92,598.42v37h-5.31v-37Z"/><path class="cls-1" d="M1332.12,616.94c0,11.89-5.92,19.09-15,19.09s-15-7.2-15-19.09,5.87-19,15-19S1332.12,605,1332.12,616.94Zm-24.45,0c0,9.29,3.52,14.34,9.49,14.34s9.5-5.1,9.5-14.34-3.53-14.34-9.5-14.34S1307.67,607.6,1307.67,616.94Z"/><path class="cls-1" d="M1350.18,598.42c9.69,0,14.39,3.11,14.39,10.36,0,4.84-2.5,8.06-7.3,9.44l8.47,17.19h-5.81l-7.71-16h-8.11v16h-5.26v-37Zm-6.07,16.48h6.12c6,0,8.93-1.79,8.93-6,0-4.49-2.76-6-8.83-6h-6.22Z"/><path class="cls-1" d="M1397.94,647.46h-3.72v-51h3.72Z"/><path class="cls-1" d="M1448.41,609.54c-1.07-4.74-3.73-7.14-7.86-7.14-5.46,0-8.78,5.05-8.78,14.64s3.27,14.29,9.14,14.29c4.18,0,7.24-2.65,8.21-7.45l4.9,1.23c-1.89,7.19-6.33,10.92-13.27,10.92-9.23,0-14.39-6.59-14.39-19,0-12.19,5.51-19.08,14.39-19.08,6.79,0,11.08,3.57,12.61,10.41Z"/><path class="cls-1" d="M1487.39,616.94c0,11.89-5.92,19.09-15,19.09s-15-7.2-15-19.09,5.87-19,15-19S1487.39,605,1487.39,616.94Zm-24.44,0c0,9.29,3.52,14.34,9.49,14.34s9.49-5.1,9.49-14.34-3.52-14.34-9.49-14.34S1463,607.6,1463,616.94Z"/><path class="cls-1" d="M1500.61,598.42l11.79,20.31c1.42,2.5,2.85,5.15,4.23,8-.15-2.15-.2-4.65-.2-7.4V598.42h5v37h-4.65l-13.31-22.14c-1.33-2.2-2.86-5-4.6-8.47.16,2.39.21,5,.21,7.85v22.76h-5v-37Z"/><path class="cls-1" d="M1553.12,598.42v4.69h-10.31v32.3h-5.46v-32.3H1527v-4.69Z"/><path class="cls-1" d="M1570.16,598.42c9.69,0,14.39,3.11,14.39,10.36,0,4.84-2.5,8.06-7.3,9.44l8.47,17.19h-5.82l-7.7-16h-8.11v16h-5.26v-37Zm-6.07,16.48h6.12c6,0,8.93-1.79,8.93-6,0-4.49-2.76-6-8.83-6h-6.22Z"/><path class="cls-1" d="M1607.05,598.42l11.28,37h-5.46l-2.91-10h-13.32l-2.86,10h-5.35l11.32-37Zm-9.13,22.5h10.66l-5-18.06h-.41Z"/><path class="cls-1" d="M1643.13,609.54c-1.07-4.74-3.73-7.14-7.86-7.14-5.46,0-8.78,5.05-8.78,14.64s3.27,14.29,9.14,14.29c4.18,0,7.24-2.65,8.21-7.45l4.9,1.23c-1.89,7.19-6.33,10.92-13.27,10.92-9.23,0-14.39-6.59-14.39-19,0-12.19,5.51-19.08,14.39-19.08,6.79,0,11.08,3.57,12.61,10.41Z"/><path class="cls-1" d="M1677.21,598.42v4.69h-10.3v32.3h-5.46v-32.3h-10.31v-4.69Z"/><path class="cls-1" d="M1688.69,598.42v37h-5.3v-37Z"/><path class="cls-1" d="M1704.92,598.42l11.79,20.31c1.43,2.5,2.86,5.15,4.23,8-.15-2.15-.2-4.65-.2-7.4V598.42h5v37h-4.64l-13.32-22.14c-1.33-2.2-2.86-5-4.59-8.47.15,2.39.2,5,.2,7.85v22.76h-5v-37Z"/><path class="cls-1" d="M1755.13,609.24c-1.32-4.34-4.13-6.79-7.91-6.79-6.07,0-9.39,4.95-9.39,14.7,0,9.13,3.73,14.18,9.55,14.18,5.1,0,8.06-3.42,8.11-9.69h-7.86v-4.55h13.27v18.32h-4.19l-.25-4a11.28,11.28,0,0,1-9.64,4.6c-8.94,0-14.4-7-14.4-19,0-12.35,5.57-19.13,15-19.13,6.38,0,10.92,3.57,12.81,10.15Z"/><path class="cls-2" d="M614.56,290.36q24.8-32.06,24.94-76.1L640,129l-142.84-.62c-3.9-25.26-15.75-47.88-35.4-67.68L401.69,0,299.87,100.89c-21.83-18.24-48.5-27.44-79.22-27.6L135.36,73l-.47,145.8Q93,223.22,60.66,255.27L0,315.31,101.05,417.14c-16.37,21.2-24.64,46.46-24.64,75.62l-.47,85.31,148.3.62c3.43,26.66,15.44,50.52,36,71.26l60.19,60.51L421.81,609.88q31.82,24.32,75.32,24.48l85.3.31.63-145.18c27.44-3,51.77-15.13,73-36.18l60.51-60ZM498.69,142.06a18.58,18.58,0,0,0-.31-3l132.23.46-.31,74.7q-.22,39.53-22.92,68.77l-67.83-68.3-60.5,60.19A133.11,133.11,0,0,0,453,310.63a91.21,91.21,0,0,1-27.13-21.05,116.18,116.18,0,0,1-15.44-21.83A112.29,112.29,0,0,0,444.9,244l21.83-21.67C489.49,199.76,500.25,172.94,498.69,142.06ZM600.36,291.29c-19,20.27-42.73,30.41-71.11,30.25l-31.18-.15a94.41,94.41,0,0,1-36.18-6.71,111.46,111.46,0,0,1,23.7-33.21l53-52.55Zm-154.69,102a119.31,119.31,0,0,0-31.5,20.27c-9.51,8.58-17.15,17.93-22.61,28.53a115.65,115.65,0,0,0-33.84-6.86,103,103,0,0,0-40.54,5.62,120.25,120.25,0,0,0-20.12-31A99.47,99.47,0,0,0,268.22,387a120.19,120.19,0,0,0,7.17-34.46,100.55,100.55,0,0,0-4.68-37.74,118.91,118.91,0,0,0,32.91-20.9,102.15,102.15,0,0,0,22.14-27.29,114.56,114.56,0,0,0,38.51,8.74,102.89,102.89,0,0,0,37-4.37,110.25,110.25,0,0,0,17.62,26.2,98.18,98.18,0,0,0,29.95,23.23A112.83,112.83,0,0,0,441.3,356,102,102,0,0,0,445.67,393.28ZM488.4,141.44q1.88,42.57-28.85,73l-22.15,22a97.73,97.73,0,0,1-31.49,21.52c-5.77-13.57-8.58-28.54-8.42-44.75l.31-74.54,90.44.31C488.24,139.72,488.4,140.66,488.4,141.44ZM402.48,14.19l52.55,53c17.77,17.93,28.38,38.2,32,61.13l-98.4-.47-.47,85.3c0,17.46,2.81,33.37,8.58,48a95.47,95.47,0,0,1-32.9,3.74A106.4,106.4,0,0,1,330,257.77c5.61-12.95,8.42-27.29,8.42-42.89l.15-30.72c.16-30.4-10-55.82-30.71-76.1Zm-102,101.2c18.41,18.4,27.61,41,27.45,68.15l-.16,31.19a97.75,97.75,0,0,1-7.48,38.67,110.53,110.53,0,0,1-30.41-22.3l-52.55-53ZM146,82.34l74.69.31c27.76.15,51.78,8.57,71.89,25.57L223.15,177l60,60.66a129.93,129.93,0,0,0,32.74,24.48,96.44,96.44,0,0,1-20,24.8,104.78,104.78,0,0,1-28.54,18.71A113,113,0,0,0,244,272l-21.68-21.83c-21.83-22-47.39-32.6-76.87-32.13Zm-.63,146q40-.22,69.09,29l22,22.14c9.19,9.36,16.21,19.34,20.89,30.1a118.13,118.13,0,0,1-37.59,5.77L145,315ZM14.19,314.37l53-52.55c19.33-19.33,42-30.25,67.52-32.75l-.31,95.28,85.14.32c14.82,0,28.54-1.88,41.17-6.09A96.41,96.41,0,0,1,264.94,353a104.9,104.9,0,0,1-5.62,29.79,107.87,107.87,0,0,0-41.47-7.8l-30.72-.15c-32.13-.16-58.33,11.22-79.22,34Zm241.24,78.44a117.44,117.44,0,0,1-24.33,34.3l-53,52.56L115.24,416.2c19-20.59,42.88-30.72,71.42-30.72l31.19.16A97.79,97.79,0,0,1,255.43,392.81ZM223.3,568.08l-138-.62.31-74.54c.16-26.35,7.64-49.12,22.61-68.46L177,493.7l60.66-60c11.39-11.39,20.27-23.55,26.51-36.81a98,98,0,0,1,25.89,20.59A107.67,107.67,0,0,1,308,444.58a112.72,112.72,0,0,0-30.88,22l-21.83,21.67Q221.36,521.93,223.3,568.08Zm39.15-71.88,22.14-22A96,96,0,0,1,312,454.56a115.32,115.32,0,0,1,6.4,39.3l-.32,74.69-84.51-.47C232.51,540.33,242.18,516.31,262.45,496.2Zm57.07,200.22L267,643.4c-18.56-18.71-29.48-40.39-32.44-64.71l92.79.46.3-85.29a132.22,132.22,0,0,0-6.7-43,94.77,94.77,0,0,1,37.27-5.3A112,112,0,0,1,387.35,451c-5.3,12.63-8,26.51-8,41.79l-.16,30.73q-.23,48.18,34.15,79.37c.16.15.16.15.32.15ZM420.88,595.84c-20.74-19.18-31.19-43-31-71.73l.15-31.35a97.2,97.2,0,0,1,7.33-37.89,113.61,113.61,0,0,1,34.77,24.64l52.71,53Zm151,29.47-74.7-.31c-26-.15-48.65-7.49-68-22.3l69.71-69.23-60-60.51c-11.54-11.54-24-20.58-37.42-26.82a95.77,95.77,0,0,1,20.42-25.57,106.26,106.26,0,0,1,27.29-18.09,110.41,110.41,0,0,0,23.55,34l21.68,21.83c22.14,22.46,48,33.06,78,32Zm.62-145.17c-27.29.46-50.68-9.05-70.32-28.85l-22-22.3a97.75,97.75,0,0,1-21.06-30.57,117.78,117.78,0,0,1,39.15-6.24l74.53.32Zm77-33.38c-19.18,18.87-41.32,29.79-66.42,32.44l.46-95.91-85.29-.3c-15.29,0-29.48,2-42.57,6.54a96.94,96.94,0,0,1-4.06-34,112.83,112.83,0,0,1,6.08-30.87A108.93,108.93,0,0,0,498.07,332l30.72.16c32,.16,58.16-11.07,78.91-33.69l94.8,95.75Z"/><path class="cls-3" d="M326.58,288.09H390v5.24q-9,.18-13.86,2.33t-5.29,8.62c-.13,2.67-.25,4.78-.38,6.33s-.19,2.24-.19,2.05v87.82a27.47,27.47,0,0,0,1.19,9,9,9,0,0,0,3.38,4.76,13.73,13.73,0,0,0,5.05,1.95c1.91.35,5.27.72,10.1,1.1v5.24H326.58v-5.24q8.48-.09,12.81-1.76a8.88,8.88,0,0,0,5.62-5.34q1.29-3.66,1.29-11.67V313.42a64,64,0,0,0-.72-11.28,8.65,8.65,0,0,0-2.71-5.29,11.92,11.92,0,0,0-5.38-2.24q-3.39-.62-10.91-1.28Zm22.86,22.57v94.87q0,4.86-1.71,7.15a18.57,18.57,0,0,1-5.91,4.57,24.72,24.72,0,0,0,10-2.05q3.81-1.86,3.81-8.14V306q0-6.47-2.67-9.71t-10.57-2.95q7.25,3.81,7.24,14.47c0,.51,0,1-.05,1.43S349.5,310.15,349.44,310.66Z"/></g></g></svg>